<svg xmlns="http://www.w3.org/2000/svg" xmlns:xlink="http://www.w3.org/1999/xlink" viewBox="0 0 407.72 500"><defs><style>.cls-1{fill:#dbdbdb;}.cls-2{fill:#f4f4f4;}.cls-3{fill:#b2b2b1;}.cls-4{fill:url(#linear-gradient);}.cls-5{fill:url(#linear-gradient-2);}.cls-6{fill:#a7a7a7;}</style><linearGradient id="linear-gradient" x1="183.73" y1="316.25" x2="183.73" y2="497.38" gradientUnits="userSpaceOnUse"><stop offset="0" stop-color="#b2b2b1"/><stop offset="0.45" stop-color="#aeaead"/><stop offset="0.89" stop-color="#a2a2a1"/><stop offset="1" stop-color="#9e9e9d"/></linearGradient><linearGradient id="linear-gradient-2" x1="183.26" y1="251.93" x2="183.26" y2="134.89" gradientUnits="userSpaceOnUse"><stop offset="0" stop-color="#fff"/><stop offset="0.24" stop-color="#fbfbfb"/><stop offset="0.48" stop-color="#f0f0ef"/><stop offset="0.71" stop-color="#dcdcdc"/><stop offset="0.95" stop-color="#c1c1c0"/><stop offset="1" stop-color="#babab9"/></linearGradient></defs><title>Asset 7</title><g id="Layer_2" data-name="Layer 2"><g id="Layer_1-2" data-name="Layer 1"><rect class="cls-1" width="407.72" height="500"/><path class="cls-2" d="M43.57,348.91c2.09,10.44,7.64,37.07,11.25,45.84,7.17,17.42,32,64.38,32,64.38s8,7.34,11.83,1-4.43-48.67-7.1-65.74C90,384,85,366.74,80.64,354.67,74.82,351.7,41.23,332.38,43.57,348.91Z"/><path class="cls-2" d="M59,291.91c-3.54,15-9.2,26.55-10.14,29.22-.26.77-3.76,19.5-4.47,22.24-2.55,9.86,7.31,7.52,17.42,8.78,3.07.38,19,11.09,19.18,5.5.11-3.62,11.7-19.07,11.7-41.25C84.24,312.06,63.82,300.21,59,291.91Z"/><path class="cls-3" d="M125.84,213.27S95.56,209.94,81,223.66s-17.51,30.7-19.44,52.84A108.44,108.44,0,0,1,59,291.91c4.83,8.3,18.08,24.49,33.69,24.49,8.86-25.71,12.33-76.32,22.85-81.8C129.92,227.08,125.84,213.27,125.84,213.27Z"/><path class="cls-2" d="M107.22,420s-11,1.8-16.21,15.38c-1.09,2.84-1.19,21.19.79,24.08s1.38,5.5,8,7.69c1.14.37,2.89-2.37,3.75-9.71.44-3.76,4-24.64,4-24.64Z"/><path class="cls-2" d="M99.89,427.06s-15.73,24-15.73,28.53,5,22.08,6.9,24,7.63,4,10.16-4.52,7.13-23.17,4.9-32.78A46.21,46.21,0,0,0,99.89,427.06Z"/><path class="cls-4" d="M116.5,212.93S80.43,257.6,88.07,300.65c4.86,16.67,5.5,24.51,5.5,34.23s2.08,33.34,4.17,43.06-6,122.06-6,122.06H274.26s-19.77-63.25-17-87.55S280.38,330,280.38,300.16s3.23-76.73-33.57-94.09-36.57-31.3-49.07-27.63c-6.44,1.89-26.05,10.64-43.57,14.05C135.07,196.22,141.38,201.33,116.5,212.93Z"/><path class="cls-5" d="M211.54,138.1s-1.49,39.05,12,54.56c0,0-40.17,29-59.9,24.52S141,202.74,143.85,195.4s1.35-42.71,4.36-51.31,29.7-25,45-19S211.54,138.1,211.54,138.1Z"/><path class="cls-2" d="M393.8,338.47c-5.5-14.31-48.15-28.87-52.24-18.64,0,0-29.61,90.2-61.11,118.49s5.66,23.15,14.27,20.6,64.36-49.46,72.32-63.38S399.3,352.78,393.8,338.47Z"/><path class="cls-2" d="M393.29,338c-.24-1.91-42.54-55-57.48-73.67-20,9.55-38,26.46-45,47.32,16.74,18.09,53.39,45.26,56,51.1,3.28,7.27,38.81-1.34,44.19-5.56S393.58,340.33,393.29,338Z"/><path class="cls-3" d="M335.81,264.33l-5.16-6.45s-41.71-52-62.14-54.77c-7.58-1-17.44-3.2-24.48-1.35A29.36,29.36,0,0,0,223.09,238c9.82,35.95,29.34,48.6,44.91,59.79,2.46,1.77,18.7,9.52,22.77,13.91C297.79,290.79,315.81,273.88,335.81,264.33Z"/><path class="cls-2" d="M278.53,442.43l-7.81-2.72-14.88-3.26s-8.31-10.52-9.16-11.32c-4.32-4.05-2.87,1.14-3,2.27-.33,3.27,4.07,12,3.69,12.29s-12,1.26-15.92.67c-2.88-.43-7.89,1.45-11.18,1.27a11.77,11.77,0,0,0-4.8,1.6l-10.65,7.17c-4,2.44-6.29,6.78-7,11.51,0,0,.36,2.24,8.9-4.6,4.55-3.65,10.66-6.34,15.49-6.07a97.25,97.25,0,0,0,10.74-.18l-13.55,5c-3,.87-2.14-.11-14.07,12l-4.64,8.54s-1.62,7.53-.43,7.24a6.45,6.45,0,0,0,4.28-1.8c2.75-3,5.24-9.23,6.91-9.84,1.11-.4,6-5,7.8-5.79a88.87,88.87,0,0,1,8.56-2.87s-16,12-16.4,15.9-4.22,12.41-2.56,12.2c1.82-.23,3.36-1.78,5.54-4.55,1.68-2.14,4.11-5.46,5-6.61,0,0,8.71-8.38,15.81-7.47,0,0-8.75,6.22-9.28,9.78s-1.36,9.62-1.36,9.62,2,3.52,2.91,3.18,5.59-11.63,5.59-11.63,17.06-3.1,24.15-2.33c7.61.82,38.78-17.87,40.05-26.33S286,449,278.53,442.43Z"/><path class="cls-2" d="M89.5,459.26s-.55-15.59,2.91-10.87c4.27,5.83,16.58,19.39,13.88,21.83S89.5,459.26,89.5,459.26Z"/><path class="cls-2" d="M88.92,471s-.35-8.85,2.75-5c3.84,4.73,14.93,16.55,12.44,17S88.92,471,88.92,471Z"/><path class="cls-2" d="M89.51,477.32s-.67-7.81,2.3-3.75c3.69,5,10.07,8.95,7.76,10.27C97.08,485.26,89.64,478.44,89.51,477.32Z"/><path class="cls-2" d="M93.21,446.45s-2-13.35,1.94-10c2.87,2.42,15.79,16.35,13.54,18.73S93.21,446.45,93.21,446.45Z"/><path class="cls-2" d="M173.75,51.23c46.19,2.34,45.06,22.09,45.57,35.59s-6.36,49.44-7.24,57S209,156,205.31,161.35s-18.65,18.1-35.8,18-30-14.93-33.67-23.65-4.65-26.8-6.32-31.3.29-2.81.06-14.62S120.42,48.52,173.75,51.23Z"/><path class="cls-2" d="M136.68,115.74c-.67-1.13-7.53-9.54-11.64-8.28s-3.26,14.12-.85,16.8,5.17,13.08,6.56,14.62,7.07,5.12,8,.4S136.68,115.74,136.68,115.74Z"/><path class="cls-6" d="M210.34,118.37l6.22,5.5s6.22-29.75,6.75-33.13.14-14.43.06-20.23S212.69,50.59,204.7,49c-7.14-1.41-9.69-7.12-17.45-8.78s-27-5.32-32.83-1-18,10.45-20.56,13.4-12.07,22.74-10.48,29.18,5.9,30.48,5.72,32.84,4-4.29,2.91-6.81-1.43-8.6-1.19-11.73-.27-13.18,2.41-17.17,8.23-12.82,12.46-13,15.26.61,20.35.61c5.74,0,19.81-.59,25.82-.59s14,6.36,12.85,10.48.61,19.37,1.79,21,3.15,3,3.86,10.71S210.34,118.37,210.34,118.37Z"/><path class="cls-2" d="M211,119.5c.79-1,8.46-8.72,12.42-7.06s1.82,14.38-.85,16.81-6.47,12.49-8,13.87-7.54,4.38-8-.4S211,119.5,211,119.5Z"/><path class="cls-6" d="M200,48.63s-.75-6.4-4.76-7.74a14.12,14.12,0,0,1-.47,3.52s3-1.59-2.51-4.86-14.47-3.27-14.47-3.27l11.24,6.17s5.91-3.79-20.87-6.17h-6.25s12.19,2.38,11.45,3.27S200,48.63,200,48.63Z"/><path class="cls-6" d="M154,40.91a18.68,18.68,0,0,0-11,2.47s2.87-1.63,5-.93c0,0-7.84,3.13-10.89,6.18,0,0,8.7-3.54,12.31-2.88S154,40.91,154,40.91Z"/><path class="cls-6" d="M216.06,59.19s8.1,8,9,13.93A18.77,18.77,0,0,0,223,70c-.76-1.23,1.45,3.38,2.22,10.12,0,0-.93-3.49-1.76-4.39a33.93,33.93,0,0,1,.11,12.88s-.34-14-4.23-17.29S216.06,59.19,216.06,59.19Z"/></g></g></svg>